<svg width="40" height="40" viewBox="0 0 40 40" fill="none" xmlns="http://www.w3.org/2000/svg">
<path d="M15.8685 21.3772H24.1317M15.8685 26.8861H20.0001M8.98242 8.98233V31.0177C8.98242 31.7482 9.27262 32.4488 9.78917 32.9654C10.3057 33.4819 11.0063 33.7721 11.7368 33.7721H28.2634C28.9939 33.7721 29.6945 33.4819 30.211 32.9654C30.7276 32.4488 31.0178 31.7482 31.0178 31.0177V14.9622C31.0178 14.5952 30.9444 14.232 30.802 13.8938C30.6596 13.5556 30.4511 13.2493 30.1887 12.9928L24.0739 7.01292C23.5593 6.50976 22.8683 6.22799 22.1486 6.22791H11.7368C11.0063 6.22791 10.3057 6.5181 9.78917 7.03466C9.27262 7.55121 8.98242 8.25181 8.98242 8.98233Z" stroke="#201B10" stroke-width="2" stroke-linecap="round" stroke-linejoin="round"/>
<path d="M22.7549 6.22791V11.7367C22.7549 12.4673 23.0451 13.1679 23.5616 13.6844C24.0782 14.201 24.7788 14.4912 25.5093 14.4912H31.0181" stroke="#201B10" stroke-width="2" stroke-linejoin="round"/>
</svg>
