<svg width="40" height="40" viewBox="0 0 40 40" fill="none" xmlns="http://www.w3.org/2000/svg">
<path d="M20 3.75C16.7861 3.75 13.6443 4.70305 10.972 6.48862C8.29969 8.27419 6.21689 10.8121 4.98696 13.7814C3.75704 16.7507 3.43524 20.018 4.06225 23.1702C4.68926 26.3224 6.23692 29.2179 8.50952 31.4905C10.7821 33.7631 13.6776 35.3107 16.8298 35.9378C19.982 36.5648 23.2493 36.243 26.2186 35.013C29.1879 33.7831 31.7258 31.7003 33.5114 29.028C35.297 26.3557 36.25 23.2139 36.25 20C36.2455 15.6916 34.5319 11.561 31.4855 8.51454C28.439 5.46806 24.3084 3.75455 20 3.75ZM20 33.75C17.2805 33.75 14.6221 32.9436 12.3609 31.4327C10.0997 29.9218 8.33737 27.7744 7.29666 25.2619C6.25596 22.7494 5.98366 19.9847 6.51421 17.3175C7.04476 14.6503 8.35432 12.2003 10.2773 10.2773C12.2003 8.35431 14.6503 7.04475 17.3175 6.5142C19.9848 5.98366 22.7494 6.25595 25.2619 7.29666C27.7744 8.33736 29.9218 10.0997 31.4327 12.3609C32.9436 14.6221 33.75 17.2805 33.75 20C33.7459 23.6455 32.2959 27.1404 29.7182 29.7182C27.1404 32.2959 23.6455 33.7459 20 33.75ZM12.5 16.875C12.5 16.5042 12.61 16.1416 12.816 15.8333C13.022 15.525 13.3149 15.2846 13.6575 15.1427C14.0001 15.0008 14.3771 14.9637 14.7408 15.036C15.1045 15.1084 15.4386 15.287 15.7008 15.5492C15.9631 15.8114 16.1416 16.1455 16.214 16.5092C16.2863 16.8729 16.2492 17.2499 16.1073 17.5925C15.9654 17.9351 15.725 18.228 15.4167 18.434C15.1084 18.64 14.7458 18.75 14.375 18.75C13.8777 18.75 13.4008 18.5525 13.0492 18.2008C12.6976 17.8492 12.5 17.3723 12.5 16.875ZM27.5 16.875C27.5 17.2458 27.39 17.6084 27.184 17.9167C26.978 18.225 26.6851 18.4654 26.3425 18.6073C25.9999 18.7492 25.6229 18.7863 25.2592 18.714C24.8955 18.6416 24.5614 18.463 24.2992 18.2008C24.037 17.9386 23.8584 17.6045 23.786 17.2408C23.7137 16.8771 23.7508 16.5001 23.8927 16.1575C24.0346 15.8149 24.275 15.522 24.5833 15.316C24.8917 15.11 25.2542 15 25.625 15C26.1223 15 26.5992 15.1975 26.9508 15.5492C27.3025 15.9008 27.5 16.3777 27.5 16.875ZM27.3313 26.875C27.4217 27.0173 27.4824 27.1764 27.5098 27.3427C27.5372 27.5091 27.5306 27.6792 27.4905 27.843C27.4504 28.0067 27.3775 28.1607 27.2764 28.2955C27.1753 28.4304 27.0479 28.5434 26.9019 28.6278C26.756 28.7122 26.5944 28.7661 26.4271 28.7865C26.2597 28.8068 26.09 28.7931 25.9281 28.7461C25.7662 28.6991 25.6154 28.6199 25.4849 28.5131C25.3545 28.4064 25.2469 28.2744 25.1688 28.125C24.0016 26.1078 22.1672 25 20 25C17.8328 25 15.9984 26.1094 14.8313 28.125C14.7531 28.2744 14.6456 28.4064 14.5151 28.5131C14.3846 28.6199 14.2338 28.6991 14.0719 28.7461C13.91 28.7931 13.7403 28.8068 13.5729 28.7865C13.4056 28.7661 13.2441 28.7122 13.0981 28.6278C12.9521 28.5434 12.8248 28.4304 12.7236 28.2955C12.6225 28.1607 12.5497 28.0067 12.5095 27.843C12.4694 27.6792 12.4629 27.5091 12.4902 27.3427C12.5176 27.1764 12.5783 27.0173 12.6688 26.875C14.2766 24.0953 16.9484 22.5 20 22.5C23.0516 22.5 25.7234 24.0938 27.3313 26.875Z" fill="#201B10"/>
</svg>
