<svg width="40" height="40" viewBox="0 0 40 40" fill="none" xmlns="http://www.w3.org/2000/svg">
<path d="M19.6802 3.91162C16.4662 3.91162 13.3245 4.86467 10.6522 6.65024C7.97987 8.43581 5.89706 10.9737 4.66714 13.943C3.43722 16.9123 3.11541 20.1796 3.74242 23.3318C4.36943 26.484 5.91709 29.3795 8.1897 31.6521C10.4623 33.9247 13.3578 35.4724 16.51 36.0994C19.6622 36.7264 22.9295 36.4046 25.8988 35.1747C28.8681 33.9447 31.406 31.8619 33.1916 29.1896C34.9771 26.5173 35.9302 23.3756 35.9302 20.1616C35.9256 15.8532 34.2121 11.7226 31.1656 8.67616C28.1192 5.62968 23.9886 3.91617 19.6802 3.91162ZM19.6802 33.9116C16.9607 33.9116 14.3023 33.1052 12.0411 31.5943C9.77992 30.0835 8.01754 27.936 6.97684 25.4235C5.93613 22.911 5.66384 20.1464 6.19439 17.4791C6.72493 14.8119 8.03449 12.3619 9.95746 10.4389C11.8804 8.51593 14.3305 7.20637 16.9977 6.67582C19.6649 6.14528 22.4296 6.41757 24.9421 7.45828C27.4546 8.49898 29.602 10.2614 31.1129 12.5225C32.6238 14.7837 33.4302 17.4421 33.4302 20.1616C33.426 23.8071 31.9761 27.302 29.3983 29.8798C26.8206 32.4575 23.3256 33.9075 19.6802 33.9116ZM12.1802 17.0366C12.1802 16.6658 12.2901 16.3033 12.4962 15.9949C12.7022 15.6866 12.995 15.4463 13.3377 15.3043C13.6803 15.1624 14.0573 15.1253 14.421 15.1976C14.7847 15.27 15.1188 15.4486 15.381 15.7108C15.6432 15.973 15.8218 16.3071 15.8942 16.6708C15.9665 17.0345 15.9294 17.4115 15.7875 17.7542C15.6455 18.0968 15.4052 18.3896 15.0969 18.5956C14.7885 18.8017 14.426 18.9116 14.0552 18.9116C13.5579 18.9116 13.081 18.7141 12.7294 18.3624C12.3777 18.0108 12.1802 17.5339 12.1802 17.0366ZM27.1802 17.0366C27.1802 17.4075 27.0702 17.77 26.8642 18.0783C26.6582 18.3867 26.3653 18.627 26.0227 18.7689C25.6801 18.9108 25.3031 18.9479 24.9394 18.8756C24.5757 18.8032 24.2416 18.6247 23.9794 18.3624C23.7171 18.1002 23.5386 17.7661 23.4662 17.4024C23.3939 17.0387 23.431 16.6617 23.5729 16.3191C23.7148 15.9765 23.9551 15.6836 24.2635 15.4776C24.5718 15.2716 24.9343 15.1616 25.3052 15.1616C25.8025 15.1616 26.2794 15.3592 26.631 15.7108C26.9826 16.0624 27.1802 16.5393 27.1802 17.0366Z" fill="#201B10"/>
<path d="M26.5038 23.0295C27.1757 23.2797 27.5258 24.0338 27.1768 24.6601C26.5394 25.8041 25.6445 26.7917 24.5563 27.5408C23.1098 28.5365 21.3918 29.0626 19.6358 29.0475C17.8799 29.0324 16.1712 28.4769 14.742 27.4566C13.6667 26.6889 12.789 25.6861 12.1713 24.5313C11.8331 23.8991 12.1961 23.1511 12.8722 22.9125C13.5483 22.6739 14.2787 23.0395 14.658 23.648C15.07 24.3088 15.6099 24.8861 16.2506 25.3435C17.2457 26.054 18.4355 26.4408 19.6581 26.4513C20.8808 26.4618 22.077 26.0955 23.0842 25.4022C23.7326 24.9559 24.2824 24.3879 24.7057 23.7342C25.0953 23.1324 25.8319 22.7793 26.5038 23.0295Z" fill="#201B10"/>
</svg>
